<mxfile host="app.diagrams.net" agent="Mozilla/5.0 (Windows NT 10.0; Win64; x64) AppleWebKit/537.36 (KHTML, like Gecko) Chrome/127.0.0.0 Safari/537.36" version="24.7.7">
  <diagram name="Página-1" id="i0eWZmUpmiWmabESyE_h">
    <mxGraphModel dx="794" dy="724" grid="1" gridSize="10" guides="1" tooltips="1" connect="1" arrows="1" fold="1" page="1" pageScale="1" pageWidth="1169" pageHeight="827" math="0" shadow="0">
      <root>
        <mxCell id="0" />
        <mxCell id="1" parent="0" />
        <mxCell id="mDGtLJkJGE_eIqr4GVcM-1" value="cliente" style="shape=umlActor;verticalLabelPosition=bottom;verticalAlign=top;html=1;outlineConnect=0;" vertex="1" parent="1">
          <mxGeometry x="20" y="230" width="30" height="60" as="geometry" />
        </mxCell>
        <mxCell id="mDGtLJkJGE_eIqr4GVcM-2" value="&#xa;&lt;span style=&quot;color: rgb(0, 0, 0); font-family: Helvetica; font-size: 12px; font-style: normal; font-variant-ligatures: normal; font-variant-caps: normal; font-weight: 400; letter-spacing: normal; orphans: 2; text-align: center; text-indent: 0px; text-transform: none; widows: 2; word-spacing: 0px; -webkit-text-stroke-width: 0px; white-space: normal; background-color: rgb(251, 251, 251); text-decoration-thickness: initial; text-decoration-style: initial; text-decoration-color: initial; display: inline !important; float: none;&quot;&gt;acceso a modulo de creacion agenda&lt;/span&gt;&#xa;&#xa;" style="ellipse;whiteSpace=wrap;html=1;" vertex="1" parent="1">
          <mxGeometry x="100" y="160" width="140" height="90" as="geometry" />
        </mxCell>
        <mxCell id="mDGtLJkJGE_eIqr4GVcM-3" value="acceso a modulo eliminación de agenda" style="ellipse;whiteSpace=wrap;html=1;" vertex="1" parent="1">
          <mxGeometry x="100" y="510" width="140" height="90" as="geometry" />
        </mxCell>
        <mxCell id="mDGtLJkJGE_eIqr4GVcM-4" value="acceso a modulo de actualización de agenda" style="ellipse;whiteSpace=wrap;html=1;" vertex="1" parent="1">
          <mxGeometry x="100" y="360" width="140" height="90" as="geometry" />
        </mxCell>
        <mxCell id="mDGtLJkJGE_eIqr4GVcM-5" value="ingresar datos de agenda" style="ellipse;whiteSpace=wrap;html=1;" vertex="1" parent="1">
          <mxGeometry x="320" y="165" width="120" height="80" as="geometry" />
        </mxCell>
        <mxCell id="mDGtLJkJGE_eIqr4GVcM-6" value="mostrar resumen de la creación de la agenda" style="ellipse;whiteSpace=wrap;html=1;" vertex="1" parent="1">
          <mxGeometry x="510" y="160" width="120" height="80" as="geometry" />
        </mxCell>
        <mxCell id="mDGtLJkJGE_eIqr4GVcM-7" value="validar agenda creada" style="ellipse;whiteSpace=wrap;html=1;" vertex="1" parent="1">
          <mxGeometry x="290" y="280" width="160" height="60" as="geometry" />
        </mxCell>
        <mxCell id="mDGtLJkJGE_eIqr4GVcM-86" value="" style="edgeStyle=none;shape=connector;rounded=0;orthogonalLoop=1;jettySize=auto;html=1;dashed=1;strokeColor=default;align=center;verticalAlign=middle;fontFamily=Helvetica;fontSize=11;fontColor=default;labelBackgroundColor=default;endArrow=none;" edge="1" parent="1" source="mDGtLJkJGE_eIqr4GVcM-8" target="mDGtLJkJGE_eIqr4GVcM-7">
          <mxGeometry relative="1" as="geometry" />
        </mxCell>
        <mxCell id="mDGtLJkJGE_eIqr4GVcM-8" value="ingresar datos actualizados de agenda" style="ellipse;whiteSpace=wrap;html=1;" vertex="1" parent="1">
          <mxGeometry x="310" y="374" width="120" height="80" as="geometry" />
        </mxCell>
        <mxCell id="mDGtLJkJGE_eIqr4GVcM-11" value="&#xa;&lt;span style=&quot;color: rgb(0, 0, 0); font-family: Helvetica; font-size: 12px; font-style: normal; font-variant-ligatures: normal; font-variant-caps: normal; font-weight: 400; letter-spacing: normal; orphans: 2; text-align: center; text-indent: 0px; text-transform: none; widows: 2; word-spacing: 0px; -webkit-text-stroke-width: 0px; white-space: normal; background-color: rgb(251, 251, 251); text-decoration-thickness: initial; text-decoration-style: initial; text-decoration-color: initial; display: inline !important; float: none;&quot;&gt;guardar reserva en el sistema&lt;/span&gt;&#xa;&#xa;" style="ellipse;whiteSpace=wrap;html=1;" vertex="1" parent="1">
          <mxGeometry x="890" y="320" width="130" height="80" as="geometry" />
        </mxCell>
        <mxCell id="mDGtLJkJGE_eIqr4GVcM-12" value="enviar notificación al email" style="ellipse;whiteSpace=wrap;html=1;" vertex="1" parent="1">
          <mxGeometry x="730" y="300" width="120" height="80" as="geometry" />
        </mxCell>
        <mxCell id="mDGtLJkJGE_eIqr4GVcM-13" value="mostrar resumen de la eliminación de agenda" style="ellipse;whiteSpace=wrap;html=1;" vertex="1" parent="1">
          <mxGeometry x="500" y="520.25" width="120" height="80" as="geometry" />
        </mxCell>
        <mxCell id="mDGtLJkJGE_eIqr4GVcM-14" value="eliminar agenda" style="ellipse;whiteSpace=wrap;html=1;" vertex="1" parent="1">
          <mxGeometry x="310" y="520" width="120" height="80" as="geometry" />
        </mxCell>
        <mxCell id="mDGtLJkJGE_eIqr4GVcM-16" value="mostrar resumen de la actualización dela agenda" style="ellipse;whiteSpace=wrap;html=1;" vertex="1" parent="1">
          <mxGeometry x="520" y="374" width="120" height="80" as="geometry" />
        </mxCell>
        <mxCell id="mDGtLJkJGE_eIqr4GVcM-51" value="include" style="endArrow=none;dashed=1;html=1;rounded=0;exitX=1;exitY=0.5;exitDx=0;exitDy=0;" edge="1" parent="1" source="mDGtLJkJGE_eIqr4GVcM-6">
          <mxGeometry width="50" height="50" relative="1" as="geometry">
            <mxPoint x="610" y="196.14" as="sourcePoint" />
            <mxPoint x="900" y="320" as="targetPoint" />
          </mxGeometry>
        </mxCell>
        <mxCell id="mDGtLJkJGE_eIqr4GVcM-52" value="" style="endArrow=classic;html=1;rounded=0;entryX=0.2;entryY=0.063;entryDx=0;entryDy=0;entryPerimeter=0;" edge="1" parent="1" target="mDGtLJkJGE_eIqr4GVcM-11">
          <mxGeometry width="50" height="50" relative="1" as="geometry">
            <mxPoint x="900" y="320" as="sourcePoint" />
            <mxPoint x="895.9311162925028" y="364.2229123600032" as="targetPoint" />
          </mxGeometry>
        </mxCell>
        <mxCell id="mDGtLJkJGE_eIqr4GVcM-88" value="extend" style="endArrow=classic;html=1;rounded=0;dashed=1;strokeColor=default;align=center;verticalAlign=middle;fontFamily=Helvetica;fontSize=11;fontColor=default;labelBackgroundColor=default;exitX=1;exitY=0.5;exitDx=0;exitDy=0;" edge="1" parent="1" source="mDGtLJkJGE_eIqr4GVcM-2" target="mDGtLJkJGE_eIqr4GVcM-5">
          <mxGeometry width="50" height="50" relative="1" as="geometry">
            <mxPoint x="480" y="340" as="sourcePoint" />
            <mxPoint x="530" y="290" as="targetPoint" />
          </mxGeometry>
        </mxCell>
        <mxCell id="mDGtLJkJGE_eIqr4GVcM-90" value="extend" style="endArrow=classic;html=1;rounded=0;dashed=1;strokeColor=default;align=center;verticalAlign=middle;fontFamily=Helvetica;fontSize=11;fontColor=default;labelBackgroundColor=default;exitX=1;exitY=0.5;exitDx=0;exitDy=0;entryX=0;entryY=0.5;entryDx=0;entryDy=0;" edge="1" parent="1" source="mDGtLJkJGE_eIqr4GVcM-5" target="mDGtLJkJGE_eIqr4GVcM-6">
          <mxGeometry width="50" height="50" relative="1" as="geometry">
            <mxPoint x="490" y="350" as="sourcePoint" />
            <mxPoint x="540" y="300" as="targetPoint" />
          </mxGeometry>
        </mxCell>
        <mxCell id="mDGtLJkJGE_eIqr4GVcM-91" value="extend" style="endArrow=classic;html=1;rounded=0;dashed=1;strokeColor=default;align=center;verticalAlign=middle;fontFamily=Helvetica;fontSize=11;fontColor=default;labelBackgroundColor=default;exitX=1;exitY=0.5;exitDx=0;exitDy=0;entryX=0;entryY=0.5;entryDx=0;entryDy=0;" edge="1" parent="1" source="mDGtLJkJGE_eIqr4GVcM-8" target="mDGtLJkJGE_eIqr4GVcM-16">
          <mxGeometry width="50" height="50" relative="1" as="geometry">
            <mxPoint x="500" y="360" as="sourcePoint" />
            <mxPoint x="550" y="310" as="targetPoint" />
          </mxGeometry>
        </mxCell>
        <mxCell id="mDGtLJkJGE_eIqr4GVcM-92" value="extend" style="endArrow=classic;html=1;rounded=0;dashed=1;strokeColor=default;align=center;verticalAlign=middle;fontFamily=Helvetica;fontSize=11;fontColor=default;labelBackgroundColor=default;exitX=1;exitY=0.5;exitDx=0;exitDy=0;" edge="1" parent="1" source="mDGtLJkJGE_eIqr4GVcM-4" target="mDGtLJkJGE_eIqr4GVcM-8">
          <mxGeometry width="50" height="50" relative="1" as="geometry">
            <mxPoint x="510" y="370" as="sourcePoint" />
            <mxPoint x="560" y="320" as="targetPoint" />
          </mxGeometry>
        </mxCell>
        <mxCell id="mDGtLJkJGE_eIqr4GVcM-93" value="extend" style="endArrow=classic;html=1;rounded=0;dashed=1;strokeColor=default;align=center;verticalAlign=middle;fontFamily=Helvetica;fontSize=11;fontColor=default;labelBackgroundColor=default;exitX=1;exitY=0.5;exitDx=0;exitDy=0;" edge="1" parent="1" source="mDGtLJkJGE_eIqr4GVcM-3" target="mDGtLJkJGE_eIqr4GVcM-14">
          <mxGeometry width="50" height="50" relative="1" as="geometry">
            <mxPoint x="520" y="380" as="sourcePoint" />
            <mxPoint x="570" y="330" as="targetPoint" />
          </mxGeometry>
        </mxCell>
        <mxCell id="mDGtLJkJGE_eIqr4GVcM-94" value="extend" style="endArrow=classic;html=1;rounded=0;dashed=1;strokeColor=default;align=center;verticalAlign=middle;fontFamily=Helvetica;fontSize=11;fontColor=default;labelBackgroundColor=default;exitX=1;exitY=0.5;exitDx=0;exitDy=0;" edge="1" parent="1" source="mDGtLJkJGE_eIqr4GVcM-14" target="mDGtLJkJGE_eIqr4GVcM-13">
          <mxGeometry width="50" height="50" relative="1" as="geometry">
            <mxPoint x="530" y="390" as="sourcePoint" />
            <mxPoint x="580" y="340" as="targetPoint" />
          </mxGeometry>
        </mxCell>
        <mxCell id="mDGtLJkJGE_eIqr4GVcM-95" value="include" style="endArrow=classic;html=1;rounded=0;dashed=1;strokeColor=default;align=center;verticalAlign=middle;fontFamily=Helvetica;fontSize=11;fontColor=default;labelBackgroundColor=default;exitX=0.592;exitY=0.975;exitDx=0;exitDy=0;exitPerimeter=0;" edge="1" parent="1" source="mDGtLJkJGE_eIqr4GVcM-6" target="mDGtLJkJGE_eIqr4GVcM-12">
          <mxGeometry width="50" height="50" relative="1" as="geometry">
            <mxPoint x="470" y="330" as="sourcePoint" />
            <mxPoint x="520" y="280" as="targetPoint" />
          </mxGeometry>
        </mxCell>
        <mxCell id="mDGtLJkJGE_eIqr4GVcM-96" value="include" style="endArrow=classic;html=1;rounded=0;dashed=1;strokeColor=default;align=center;verticalAlign=middle;fontFamily=Helvetica;fontSize=11;fontColor=default;labelBackgroundColor=default;entryX=0.05;entryY=0.738;entryDx=0;entryDy=0;entryPerimeter=0;exitX=0.9;exitY=0.25;exitDx=0;exitDy=0;exitPerimeter=0;" edge="1" parent="1" source="mDGtLJkJGE_eIqr4GVcM-16" target="mDGtLJkJGE_eIqr4GVcM-12">
          <mxGeometry width="50" height="50" relative="1" as="geometry">
            <mxPoint x="480" y="340" as="sourcePoint" />
            <mxPoint x="530" y="290" as="targetPoint" />
          </mxGeometry>
        </mxCell>
        <mxCell id="mDGtLJkJGE_eIqr4GVcM-97" value="include" style="endArrow=classic;html=1;rounded=0;dashed=1;strokeColor=default;align=center;verticalAlign=middle;fontFamily=Helvetica;fontSize=11;fontColor=default;labelBackgroundColor=default;entryX=0.1;entryY=0.813;entryDx=0;entryDy=0;entryPerimeter=0;exitX=1;exitY=0.5;exitDx=0;exitDy=0;" edge="1" parent="1" source="mDGtLJkJGE_eIqr4GVcM-16" target="mDGtLJkJGE_eIqr4GVcM-11">
          <mxGeometry width="50" height="50" relative="1" as="geometry">
            <mxPoint x="490" y="350" as="sourcePoint" />
            <mxPoint x="540" y="300" as="targetPoint" />
          </mxGeometry>
        </mxCell>
        <mxCell id="mDGtLJkJGE_eIqr4GVcM-98" value="include" style="endArrow=classic;html=1;rounded=0;dashed=1;strokeColor=default;align=center;verticalAlign=middle;fontFamily=Helvetica;fontSize=11;fontColor=default;labelBackgroundColor=default;entryX=0.433;entryY=1.025;entryDx=0;entryDy=0;entryPerimeter=0;exitX=1;exitY=0.372;exitDx=0;exitDy=0;exitPerimeter=0;" edge="1" parent="1" source="mDGtLJkJGE_eIqr4GVcM-13" target="mDGtLJkJGE_eIqr4GVcM-12">
          <mxGeometry width="50" height="50" relative="1" as="geometry">
            <mxPoint x="500" y="360" as="sourcePoint" />
            <mxPoint x="550" y="310" as="targetPoint" />
          </mxGeometry>
        </mxCell>
        <mxCell id="mDGtLJkJGE_eIqr4GVcM-99" value="include" style="endArrow=classic;html=1;rounded=0;dashed=1;strokeColor=default;align=center;verticalAlign=middle;fontFamily=Helvetica;fontSize=11;fontColor=default;labelBackgroundColor=default;entryX=0.431;entryY=0.988;entryDx=0;entryDy=0;entryPerimeter=0;exitX=1;exitY=0.5;exitDx=0;exitDy=0;" edge="1" parent="1" source="mDGtLJkJGE_eIqr4GVcM-13" target="mDGtLJkJGE_eIqr4GVcM-11">
          <mxGeometry width="50" height="50" relative="1" as="geometry">
            <mxPoint x="510" y="370" as="sourcePoint" />
            <mxPoint x="560" y="320" as="targetPoint" />
          </mxGeometry>
        </mxCell>
        <mxCell id="mDGtLJkJGE_eIqr4GVcM-100" value="include" style="endArrow=classic;html=1;rounded=0;dashed=1;strokeColor=default;align=center;verticalAlign=middle;fontFamily=Helvetica;fontSize=11;fontColor=default;labelBackgroundColor=default;entryX=0;entryY=1;entryDx=0;entryDy=0;exitX=1;exitY=0;exitDx=0;exitDy=0;" edge="1" parent="1" source="mDGtLJkJGE_eIqr4GVcM-3" target="mDGtLJkJGE_eIqr4GVcM-7">
          <mxGeometry width="50" height="50" relative="1" as="geometry">
            <mxPoint x="520" y="380" as="sourcePoint" />
            <mxPoint x="570" y="330" as="targetPoint" />
          </mxGeometry>
        </mxCell>
        <mxCell id="mDGtLJkJGE_eIqr4GVcM-101" value="include" style="endArrow=classic;html=1;rounded=0;dashed=1;strokeColor=default;align=center;verticalAlign=middle;fontFamily=Helvetica;fontSize=11;fontColor=default;labelBackgroundColor=default;entryX=0;entryY=0.5;entryDx=0;entryDy=0;" edge="1" parent="1" source="mDGtLJkJGE_eIqr4GVcM-4" target="mDGtLJkJGE_eIqr4GVcM-7">
          <mxGeometry width="50" height="50" relative="1" as="geometry">
            <mxPoint x="530" y="390" as="sourcePoint" />
            <mxPoint x="580" y="340" as="targetPoint" />
          </mxGeometry>
        </mxCell>
        <mxCell id="mDGtLJkJGE_eIqr4GVcM-102" value="include" style="endArrow=classic;html=1;rounded=0;dashed=1;strokeColor=default;align=center;verticalAlign=middle;fontFamily=Helvetica;fontSize=11;fontColor=default;labelBackgroundColor=default;entryX=0.063;entryY=0.317;entryDx=0;entryDy=0;entryPerimeter=0;" edge="1" parent="1" source="mDGtLJkJGE_eIqr4GVcM-2" target="mDGtLJkJGE_eIqr4GVcM-7">
          <mxGeometry width="50" height="50" relative="1" as="geometry">
            <mxPoint x="540" y="400" as="sourcePoint" />
            <mxPoint x="590" y="350" as="targetPoint" />
          </mxGeometry>
        </mxCell>
      </root>
    </mxGraphModel>
  </diagram>
</mxfile>
